# xmcd
#
# Track frame offsets: 
#        150
#        26740
#        49939
#        72074
#        89003
#        114707
#        133595
#        158031
#        177130
#        197154
#
# Disc length: 2947 seconds
#
# Revision: 0
# Processed by: cddbd v1.5.2PL0 Copyright (c) Steve Scherf et al.
# Submitted via: ExactAudioCopy v0.99pb5
#
DISCID=8a0b810a
DTITLE=Eddie Martin - Contrary Mary
DYEAR=2007
DGENRE=Blues
TTITLE0=Contrary Mary
TTITLE1=Something about you baby (I like)
TTITLE2=Watching the weather
TTITLE3=Month of Mondays
TTITLE4=Beautiful Miracles
TTITLE5=Give it time
TTITLE6=Better the devil you know
TTITLE7=Strong for you
TTITLE8=Living for the weekend
TTITLE9=Ingolstadt
EXTD=
EXTT0=
EXTT1=
EXTT2=
EXTT3=
EXTT4=
EXTT5=
EXTT6=
EXTT7=
EXTT8=
EXTT9=
PLAYORDER=
